<svg width="40" height="40" viewBox="0 0 40 40" xmlns="http://www.w3.org/2000/svg"><title>Shape</title><g id="Symbols" fill="none" fill-rule="evenodd"><g id="Footer" transform="translate(-910 -125)"><path id="bg-darken-10%" fill="#333" d="M0 65h1920v350H0z"/><g id="Social-Icons" transform="translate(850 125)" fill="#FFF"><g id="post-gplus" transform="translate(60)"><path d="M18.4 13.8c0-2-1.2-6-4.2-6-1.2 0-2.6.8-2.6 3.4 0 2.4 1.2 5.8 4 5.8 0 0 2.8-.2 2.8-3.2zm-1.2 9.8h-.6c-.6 0-2.4.2-3.6.6-1.4.4-3 1.4-3 3.4 0 2.2 2 4.4 6 4.4 3 0 4.8-2 4.8-4 0-1.4-1-2.4-3.6-4.4zM36 0H4C1.8 0 0 1.8 0 4v32c0 2.2 1.8 4 4 4h32c2.2 0 4-1.8 4-4V4c0-2.2-1.8-4-4-4zM14.2 34.4c-5.6 0-8.2-3.2-8.2-6 0-1 .2-3.2 3-4.8 1.6-1 3.6-1.6 6.2-1.8-.4-.4-.6-1-.6-2 0-.4 0-.6.2-1H14c-4 0-6.4-3-6.4-6 0-3.4 2.6-7.2 8.2-7.2h8.4l-.6.6-1.4 1.4-.2.2h-1.4c.8.8 1.8 2.2 1.8 4.4 0 2.8-1.4 4.2-3.2 5.4-.4.2-.8.8-.8 1.4 0 .6.4 1 .8 1.2.2.2.6.4 1 .6 1.6 1.2 3.8 2.6 3.8 5.8 0 3.6-2.6 7.8-9.8 7.8zM34 20h-4v4h-2v-4h-4v-2h4v-4h2v4h4v2z" id="Shape"/></g></g></g></g></svg>