<svg width="40" height="40" viewBox="0 0 40 40" xmlns="http://www.w3.org/2000/svg"><title>Shape</title><g id="Symbols" fill="none" fill-rule="evenodd"><g id="Footer" transform="translate(-970 -125)"><path id="bg-darken-10%" fill="#333" d="M0 65h1920v350H0z"/><g id="Social-Icons" transform="translate(850 125)" fill="#FFF"><g id="post-instagram" transform="translate(120)"><path d="M36 0H4C1.8 0 0 1.8 0 4v32c0 2.2 1.8 4 4 4h32c2.2 0 4-1.8 4-4V4c0-2.2-1.8-4-4-4zM20 12c4.4 0 8 3.6 8 8s-3.6 8-8 8-8-3.6-8-8 3.6-8 8-8zM5 36c-.6 0-1-.4-1-1V18h4.2c-.2.6-.2 1.4-.2 2 0 6.6 5.4 12 12 12s12-5.4 12-12c0-.6 0-1.4-.2-2H36v17c0 .6-.4 1-1 1H5zM36 9c0 .6-.4 1-1 1h-4c-.6 0-1-.4-1-1V5c0-.6.4-1 1-1h4c.6 0 1 .4 1 1v4z" id="Shape"/></g></g></g></g></svg>