<?xml version="1.0" encoding="UTF-8"?>
<svg width="40px" height="40px" viewBox="0 0 40 40" version="1.1" xmlns="http://www.w3.org/2000/svg" xmlns:xlink="http://www.w3.org/1999/xlink">
    <title>Shape</title>
    <g id="Symbols" stroke="none" stroke-width="1" fill="none" fill-rule="evenodd">
        <g id="Footer" transform="translate(-910.000000, -125.000000)">
            <rect id="bg-darken-10%" fill="#333333" x="0" y="65" width="1920" height="350"></rect>
            <g id="Social-Icons" transform="translate(850.000000, 125.000000)" fill="#FFFFFF">
                <g id="post-gplus" transform="translate(60.000000, 0.000000)">
                    <path d="M18.4,13.8 C18.4,11.8 17.2,7.8 14.2,7.8 C13,7.8 11.6,8.6 11.6,11.2 C11.6,13.6 12.8,17 15.6,17 C15.6,17 18.4,16.8 18.4,13.8 L18.4,13.8 Z M17.2,23.6 L16.6,23.6 L16.6,23.6 C16,23.6 14.2,23.8 13,24.2 C11.6,24.6 10,25.6 10,27.6 C10,29.8 12,32 16,32 C19,32 20.8,30 20.8,28 C20.8,26.6 19.8,25.6 17.2,23.6 L17.2,23.6 Z M36,0 L4,0 C1.8,0 0,1.8 0,4 L0,36 C0,38.2 1.8,40 4,40 L36,40 C38.2,40 40,38.2 40,36 L40,4 C40,1.8 38.2,0 36,0 L36,0 Z M14.2,34.4 C8.6,34.4 6,31.2 6,28.4 C6,27.4 6.2,25.2 9,23.6 C10.6,22.6 12.6,22 15.2,21.8 C14.8,21.4 14.6,20.8 14.6,19.8 C14.6,19.4 14.6,19.2 14.8,18.8 L14,18.8 C10,18.8 7.6,15.8 7.6,12.8 C7.6,9.4 10.2,5.6 15.8,5.6 L24.2,5.6 L23.6,6.2 L22.2,7.6 L22,7.8 L20.6,7.8 C21.4,8.6 22.4,10 22.4,12.2 C22.4,15 21,16.4 19.2,17.6 C18.8,17.8 18.4,18.4 18.4,19 C18.4,19.6 18.8,20 19.2,20.2 C19.4,20.4 19.8,20.6 20.2,20.8 C21.8,22 24,23.4 24,26.6 C24,30.2 21.4,34.4 14.2,34.4 L14.2,34.4 Z M34,20 L30,20 L30,24 L28,24 L28,20 L24,20 L24,18 L28,18 L28,14 L30,14 L30,18 L34,18 L34,20 L34,20 Z" id="Shape"></path>
                </g>
            </g>
        </g>
    </g>
</svg>
