<?xml version="1.0" encoding="UTF-8"?>
<svg width="40px" height="40px" viewBox="0 0 40 40" version="1.1" xmlns="http://www.w3.org/2000/svg" xmlns:xlink="http://www.w3.org/1999/xlink">
    <title>Shape</title>
    <g id="Symbols" stroke="none" stroke-width="1" fill="none" fill-rule="evenodd">
        <g id="Footer" transform="translate(-1030.000000, -125.000000)">
            <rect id="bg-darken-10%" fill="#333333" x="0" y="65" width="1920" height="350"></rect>
            <g id="Social-Icons" transform="translate(850.000000, 125.000000)" fill="#FFFFFF">
                <g id="post-twitter" transform="translate(180.000000, 0.000000)">
                    <path d="M36,0 L4,0 C1.8,0 0,1.8 0,4 L0,36 C0,38.2 1.8,40 4,40 L36,40 C38.2,40 40,38.2 40,36 L40,4 C40,1.8 38.2,0 36,0 L36,0 Z M31.4,14.6 C31.2,23.8 25.4,30.2 16.6,30.6 C13,30.8 10.4,29.6 8,28.2 C10.6,28.6 14,27.6 15.8,26 C13.2,25.8 11.6,24.4 10.8,22.2 C11.6,22.4 12.4,22.2 13,22.2 C10.6,21.4 9,20 8.8,16.8 C9.4,17.2 10.2,17.4 11,17.4 C9.2,16.4 8,12.6 9.4,10.2 C12,13 15.2,15.4 20.4,15.8 C19,10.2 26.6,7.2 29.6,11 C31,10.8 32,10.2 33,9.8 C32.6,11.2 31.8,12 30.8,12.8 C31.8,12.6 32.8,12.4 33.6,12 C33.4,13 32.4,13.8 31.4,14.6 L31.4,14.6 Z" id="Shape"></path>
                </g>
            </g>
        </g>
    </g>
</svg>
